<?xml version="1.0" encoding="iso-8859-1"?>
<!-- Generator: Adobe Illustrator 19.0.0, SVG Export Plug-In . SVG Version: 6.00 Build 0)  -->
<!-- License: CC0. Made by SVG Repo: https://www.svgrepo.com/svg/171071/medicine -->
<svg version="1.1" id="Layer_1" xmlns="http://www.w3.org/2000/svg" xmlns:xlink="http://www.w3.org/1999/xlink" x="0px" y="0px"
	 viewBox="0 0 489.488 489.488" style="enable-background:new 0 0 489.488 489.488;" xml:space="preserve">
<g>
	<g>
		<path d="M466.1,167.892c-15.6-15.6-49.1-33.5-87.4-18.1c-20.4-87.1-98.3-149.4-187.3-149.4C86.3,0.392,0,86.792,0,192.892
			c0,90.7,62.7,168,149.8,187.8c-10.1,28.6-3.9,62.1,18.7,84.7c19.5,19.5,70,41.8,114.4,0l183.1-183.1
			C497.3,251.192,497.3,199.092,466.1,167.892z M40.6,192.892c0-83.2,67.6-151.9,150.8-151.9c71.8,0,134.2,51,148.8,121.7
			c1,5.2,2.2,14.1,2.3,14.4c0,0-166.5,166.5-166.8,166.8C172.1,347.392,40.6,325.492,40.6,192.892z M253.8,436.292
			c-15.6,15.6-41.6,15.6-57.2,0s-15.6-41.6,0-57.2l77-77l57.2,57.2L253.8,436.292z M436.9,253.192l-77,77l-57.2-57.2l77-77
			c22-21.3,49-8.3,57.2,0C452.5,211.592,452.5,237.592,436.9,253.192z"/>
		<path d="M191.6,213.292h53.1c11.4,0,20.8-9.4,20.8-20.8c0-11.4-9.4-20.8-20.8-20.8h-32.3v-77c0-11.4-9.4-20.8-20.8-20.8
			c-11.4,0-20.8,9.4-20.8,20.8v97.8C170.8,203.892,180.1,213.292,191.6,213.292z"/>
	</g>
</g>
</svg>
